<!DOCTYPE svg PUBLIC "-//W3C//DTD SVG 1.1//EN" "http://www.w3.org/Graphics/SVG/1.1/DTD/svg11.dtd">
<!-- Uploaded to: SVG Repo, www.svgrepo.com, Transformed by: SVG Repo Mixer Tools -->
<svg fill="#fafafa" width="800px" height="800px" viewBox="0 0 512 512" id="_x30_1" version="1.1" xml:space="preserve" xmlns="http://www.w3.org/2000/svg" xmlns:xlink="http://www.w3.org/1999/xlink">
<g id="SVGRepo_bgCarrier" stroke-width="0"/>
<g id="SVGRepo_tracerCarrier" stroke-linecap="round" stroke-linejoin="round"/>
<g id="SVGRepo_iconCarrier"> <g> <path d="M298.656,187.5c-10.096,0-18.281,8.185-18.281,18.281v129.188c0,10.096,8.185,18.281,18.281,18.281 s18.281-8.185,18.281-18.281V205.781C316.938,195.685,308.753,187.5,298.656,187.5z"/> <path d="M256,0C114.615,0,0,114.615,0,256s114.615,256,256,256s256-114.615,256-256S397.385,0,256,0z M365.688,163.125v202.312 c0,20.193-16.37,36.562-36.562,36.562h-146.25c-20.193,0-36.562-16.37-36.562-36.562V163.125 c-13.462,0-24.375-10.913-24.375-24.375s10.913-24.375,24.375-24.375h49.796c3.232,0,6.332-1.284,8.618-3.57l17.236-17.236 c2.286-2.285,5.385-3.57,8.618-3.57h50.841c3.232,0,6.332,1.284,8.618,3.57l17.236,17.236c2.286,2.286,5.385,3.57,8.618,3.57 h49.795c13.462,0,24.375,10.913,24.375,24.375S379.149,163.125,365.688,163.125z"/> <path d="M213.344,187.5c-10.096,0-18.281,8.185-18.281,18.281v129.188c0,10.096,8.185,18.281,18.281,18.281 s18.281-8.185,18.281-18.281V205.781C231.625,195.685,223.44,187.5,213.344,187.5z"/> </g> </g>
</svg>